<svg viewBox="0 0 998.33 318.51" version="1.1" xmlns="http://www.w3.org/2000/svg">
    <g fill="#FFF">
      <path d="M54,154.52H35.41V223.9H23.93V154.52H7.39V144.9H23.93V123.3c0-17.9,8.77-29,26.84-29a36,36,0,0,1,9.45,1.19l-2,10.12a28.15,28.15,0,0,0-7.93-1.18c-12.32,0-14.85,8.78-14.85,20.26V144.9H54Z" />
      <path d="M120.14,172.92c0-13.67-7.43-20.42-21.1-20.42a33.6,33.6,0,0,0-23.46,9.28l-6.41-7.59c6.41-6.42,17.55-11.31,31.05-11.31,17,0,30.72,9.45,30.72,28.69v34.6a108.79,108.79,0,0,0,1.35,17.73H122a78.34,78.34,0,0,1-1.18-12.83h-.34c-7.26,10.46-16,14.85-28.7,14.85-12,0-27.34-6.41-27.34-24,0-24.3,26.84-26.5,55.7-26.5Zm-3.37,11.48c-18.74,0-40.51,2-40.51,17,0,11.31,9.62,15,18.56,15,16.21,0,25.32-12.15,25.32-26.16V184.4Z" />
      <path d="M202.51,163.64c-3.37-6.59-10.63-11.14-19.41-11.14-8.27,0-16.71,3.54-16.71,12.32,0,7.43,5.91,10.8,18.91,13.5,18.57,3.88,27.34,10.8,27.34,23.13,0,18.06-15.19,24.47-29.71,24.47-12,0-24-4.72-31.22-15.36l9.11-6.75a26.15,26.15,0,0,0,22,12.32c9.79,0,18.56-3.54,18.56-13.84,0-8.27-8.27-11.65-23.29-15.19-9.28-2.19-22.62-6.25-22.62-21.27,0-16,13.84-23,28.19-23,11,0,22.62,5.23,27.68,14.17Z" />
      <path d="M247.58,157.9c4.22-9.12,15.36-15,26.5-15,20.09,0,30.05,13,30.05,32.57V223.9H292.65V180.18c0-16.54-4.89-27.68-21.44-27.68-12.15,0-24,9.79-24,30.89V223.9H235.77V96.29h11.48V157.9Z" />
      <path d="M339.74,122.62a8.1,8.1,0,1,1,8.11-8.1,8.22,8.22,0,0,1-8.11,8.1m5.74,101.28H334v-79h11.47Z" />
      <path d="M412.33,225.92c-24.48,0-42-17.72-42-41.52s17.55-41.52,42-41.52c24.64,0,42.2,17.72,42.2,41.52s-17.56,41.52-42.2,41.52m0-73.42c-18.23,0-29.88,14.18-29.88,31.9s11.65,31.73,29.88,31.73c18.4,0,30-14,30-31.73s-11.64-31.9-30-31.9" />
      <path d="M489.47,144.9c.34,4.22.68,10.13.68,13.51h.33c4.39-9.12,15.87-15.53,27-15.53,20.09,0,30,13,30,32.57V223.9H536.06V180.18c0-16.54-4.9-27.68-21.44-27.68-12.15,0-24,9.79-24,30.89V223.9H479.17V162.29c0-4.22-.17-12-.67-17.39Z" />
      <polygon points="599.36 122.96 562.73 122.96 562.73 104.39 657.25 104.39 657.25 122.96 620.63 122.96 620.63 223.9 599.36 223.9 599.36 122.96" />
      <path d="M654.89,142.88H674.3v13.5h.34c4.39-9.28,13-15.87,23.63-15.87a22.8,22.8,0,0,1,4.9.51v18.57a23.48,23.48,0,0,0-6.25-.85c-18.23,0-21.77,15.87-21.77,21.78V223.9H654.89Z" />
      <path d="M764.44,213.6h-.5c-4.06,7.09-13.68,12.32-25.15,12.32-13,0-30.39-6.24-30.39-25.15,0-24.14,30.39-27.51,55.7-27.51v-2c0-10-8.43-14.85-18.56-14.85a32.38,32.38,0,0,0-22.11,9.28L713,153.34c9.12-8.44,21.94-12.83,34.27-12.83,29,0,36.12,17.9,36.12,34.1V223.9H764.44Zm-.34-26.67h-4.55c-12.83,0-30.89,1.52-30.89,13.5,0,7.77,7.26,10.13,14.18,10.13,13.84,0,21.26-7.93,21.26-20.76Z" />
      <path d="M889.35,223.9H870.11V211.74h-.34c-5.57,9.29-16.54,14.52-27.85,14.52-24.64,0-39.84-19.58-39.84-43.21,0-24,16.21-42.54,39.33-42.54,14.86,0,23,7.43,27.18,12.66h.5V96.29h20.26ZM846,209.38c14.85,0,23.8-13.33,23.8-26s-8.95-26.33-23.8-26.33c-15.7,0-23.29,13.33-23.29,26s7.59,26.33,23.29,26.33" />
      <path d="M991.13,189.8h-61.6c.84,11.48,11.3,19.92,23.12,19.92,10.13,0,16.88-4.05,21.44-10.47l13.5,10.81c-7.93,10.8-19.41,16.2-34.77,16.2-25,0-43.55-16-43.55-42.37,0-26.16,18.4-43.38,42.87-43.38,22.62,0,39.16,14.69,39.16,43.89,0,1.86,0,3.54-.17,5.4m-20.08-14.52c0-10.46-5.91-19.58-19.07-19.58-12,0-21.61,8.27-22.45,19.58Z" />
    </g>
  </svg>
